<?xml version="1.0" encoding="iso-8859-1"?>
<!-- Uploaded to: SVG Repo, www.svgrepo.com, Generator: SVG Repo Mixer Tools -->
<svg fill="#000000" height="800px" width="800px" version="1.1" id="Layer_1" xmlns="http://www.w3.org/2000/svg" xmlns:xlink="http://www.w3.org/1999/xlink" 
	 viewBox="0 0 512.069 512.069" xml:space="preserve">
<g>
	<g>
		<path d="M511.846,453.047l-37.248-318.976c-2.539-27.797-25.131-48.704-52.693-48.704h-37.909
			c0-47.061-38.272-85.333-85.333-85.333c-47.061,0-85.333,38.272-85.333,85.333h-23.211c-16.811,0-31.936,8.192-41.643,21.419
			c-34.88,0.533-63.147,32.149-63.147,71.019v14.229H66.256c-23.552,0-42.837,17.92-44.843,41.557L0.166,464.652
			c-1.045,12.395,2.88,24.128,11.029,33.003c8.427,9.131,20.736,14.379,33.813,14.379h195.413c3.883,0,7.68-0.683,11.392-1.685
			c18.688,1.237,49.259,1.323,99.541,1.429l108.48,0.235c14.635,0,28.16-5.931,38.101-16.747
			C508.112,484.172,513.232,469.026,511.846,453.047z M127.995,177.804c0-15.403,9.771-28.437,21.333-28.437
			c1.365,0,2.709,0.213,4.011,0.555c0.256,0.085,0.405,0.277,0.661,0.363c4.757,1.515,8.853,5.12,11.819,9.92
			c0.064,0.107,0.128,0.213,0.192,0.32c1.365,2.283,2.453,4.864,3.243,7.595c0.107,0.341,0.171,0.704,0.256,1.045
			c0.704,2.773,1.152,5.653,1.152,8.64v14.229h-42.667V177.804z M240.507,468.94c-0.469,0.064-0.853,0.341-1.344,0.427H45.008
			c-1.515,0-2.283-0.491-2.347-0.981l21.248-231.04c0.128-1.493,1.173-2.645,2.347-2.645h40.405h85.333h32.149
			c1.173,0,2.219,1.173,2.325,2.347l16.277,229.077C242.896,467.98,241.488,468.834,240.507,468.94z M255.995,85.367
			c0-23.531,19.136-42.667,42.667-42.667s42.667,19.136,42.667,42.667H255.995z"/>
	</g>
</g>
</svg>